# This file uses centimeters as units for non-parametric coordinates.

mtllib decahedron.mtl
g default
v 0.309017 1.000000 -0.951057
v -0.809017 1.000000 -0.587785
v -0.809017 1.000000 0.587785
v 0.309017 1.000000 0.951057
v 1.000000 1.000000 0.000000
v 0.000000 2.000000 0.000000
v 0.000000 -0.000000 -0.000000
vt 0.239051 0.471591
vt 0.333885 0.444908
vt 0.447700 0.474474
vt 0.553591 0.464093
vt 0.661836 0.459699
vt 0.760478 0.473201
vt 0.500000 1.000000
vt 0.250013 0.500015
vt 0.349997 0.499989
vt 0.500000 1.000000
vt 0.449999 0.499989
vt 0.550001 0.499989
vt 0.650003 0.499989
vt 0.749987 0.500015
vn -0.240241 0.628960 -0.739387
vn -0.240241 0.628960 -0.739387
vn -0.240241 0.628960 -0.739387
vn -0.777437 0.628960 0.000000
vn -0.777437 0.628960 0.000000
vn -0.777438 0.628960 0.000000
vn -0.240241 0.628960 0.739387
vn -0.240241 0.628960 0.739387
vn -0.240241 0.628960 0.739387
vn 0.628960 0.628960 0.456966
vn 0.628960 0.628960 0.456966
vn 0.628960 0.628960 0.456966
vn 0.628960 0.628960 -0.456966
vn 0.628960 0.628960 -0.456966
vn 0.628960 0.628960 -0.456966
vn -0.240241 -0.628960 0.739387
vn -0.240241 -0.628960 0.739387
vn -0.240241 -0.628960 0.739387
vn -0.777438 -0.628960 0.000000
vn -0.777438 -0.628960 0.000000
vn -0.777438 -0.628960 0.000000
vn -0.240241 -0.628960 -0.739387
vn -0.240241 -0.628960 -0.739387
vn -0.240241 -0.628960 -0.739387
vn 0.628960 -0.628960 -0.456966
vn 0.628960 -0.628960 -0.456966
vn 0.628960 -0.628960 -0.456966
vn 0.628960 -0.628960 0.456966
vn 0.628960 -0.628960 0.456966
vn 0.628960 -0.628960 0.456966
s off
g decahedron
usemtl initialShadingGroup
f 1/1/1 2/2/2 6/7/3
f 2/2/4 3/3/5 6/7/6
f 3/3/7 4/4/8 6/7/9
f 4/4/10 5/5/11 6/7/12
f 5/5/13 1/6/14 6/7/15
f 4/8/16 3/9/17 7/10/18
f 3/9/19 2/11/20 7/10/21
f 2/11/22 1/12/23 7/10/24
f 1/12/25 5/13/26 7/10/27
f 5/13/28 4/14/29 7/10/30
